<mxfile host="app.diagrams.net" modified="2020-09-23T17:07:48.739Z" agent="5.0 (Windows NT 10.0; Win64; x64) AppleWebKit/537.36 (KHTML, like Gecko) Chrome/87.0.4271.0 Safari/537.36" etag="5IomN00LRp0zqfNTrRxa" version="13.7.4" type="github">
  <diagram id="C5RBs43oDa-KdzZeNtuy" name="Page-1">
    <mxGraphModel dx="1558" dy="998" grid="1" gridSize="10" guides="1" tooltips="1" connect="1" arrows="1" fold="1" page="1" pageScale="1" pageWidth="827" pageHeight="1169" math="0" shadow="0">
      <root>
        <mxCell id="WIyWlLk6GJQsqaUBKTNV-0" />
        <mxCell id="WIyWlLk6GJQsqaUBKTNV-1" parent="WIyWlLk6GJQsqaUBKTNV-0" />
        <object label="&lt;a href=&quot;https://schema.org/Landform&quot;&gt;landform&lt;/a&gt;" graknType="abstract_entity" id="9QVk3u8Kt-TEKJko5CJN-60">
          <mxCell style="rounded=1;whiteSpace=wrap;html=1;fontSize=12;glass=0;strokeWidth=1;shadow=0;fillColor=none;strokeColor=#660033;align=left;verticalAlign=top;labelPosition=center;verticalLabelPosition=middle;fontColor=#33001A;horizontal=1;textDirection=ltr;spacingBottom=0;spacingTop=-6;" parent="WIyWlLk6GJQsqaUBKTNV-1" vertex="1">
            <mxGeometry x="313" y="20" width="120" height="40" as="geometry" />
          </mxCell>
        </object>
        <mxCell id="WIyWlLk6GJQsqaUBKTNV-3" value="Subregion" style="rounded=1;whiteSpace=wrap;html=1;fontSize=12;glass=0;strokeWidth=1;shadow=0;fillColor=#76608a;fontColor=#ffffff;strokeColor=none;" parent="WIyWlLk6GJQsqaUBKTNV-1" vertex="1">
          <mxGeometry x="320" y="200" width="120" height="40" as="geometry" />
        </mxCell>
        <mxCell id="9QVk3u8Kt-TEKJko5CJN-1" value="containsPlace" style="endArrow=none;html=1;entryX=0.5;entryY=1;entryDx=0;entryDy=0;exitX=0.5;exitY=0;exitDx=0;exitDy=0;rounded=0;startArrow=open;startFill=0;" parent="WIyWlLk6GJQsqaUBKTNV-1" source="9QVk3u8Kt-TEKJko5CJN-56" target="WIyWlLk6GJQsqaUBKTNV-3" edge="1">
          <mxGeometry width="50" height="50" relative="1" as="geometry">
            <mxPoint x="380" y="300" as="sourcePoint" />
            <mxPoint x="370" y="250" as="targetPoint" />
          </mxGeometry>
        </mxCell>
        <mxCell id="9QVk3u8Kt-TEKJko5CJN-7" value="containsPlace" style="edgeStyle=orthogonalEdgeStyle;rounded=0;orthogonalLoop=1;jettySize=auto;html=1;startArrow=none;startFill=0;endArrow=open;endFill=0;" parent="WIyWlLk6GJQsqaUBKTNV-1" source="9QVk3u8Kt-TEKJko5CJN-2" target="9QVk3u8Kt-TEKJko5CJN-58" edge="1">
          <mxGeometry relative="1" as="geometry" />
        </mxCell>
        <mxCell id="9QVk3u8Kt-TEKJko5CJN-2" value="&lt;a href=&quot;https://schema.org/Country&quot;&gt;Country&lt;/a&gt;" style="rounded=1;whiteSpace=wrap;html=1;fontSize=12;glass=0;strokeWidth=1;shadow=0;fillColor=#76608a;fontColor=#ffffff;strokeColor=none;" parent="WIyWlLk6GJQsqaUBKTNV-1" vertex="1">
          <mxGeometry x="320" y="370" width="120" height="40" as="geometry" />
        </mxCell>
        <mxCell id="9QVk3u8Kt-TEKJko5CJN-6" value="State" style="rounded=1;whiteSpace=wrap;html=1;fontSize=12;glass=0;strokeWidth=1;shadow=0;fillColor=#76608a;fontColor=#ffffff;strokeColor=none;" parent="WIyWlLk6GJQsqaUBKTNV-1" vertex="1">
          <mxGeometry x="320" y="550" width="120" height="40" as="geometry" />
        </mxCell>
        <mxCell id="9QVk3u8Kt-TEKJko5CJN-8" value="neighbour" style="rhombus;whiteSpace=wrap;html=1;fillColor=#6d8764;fontColor=#ffffff;strokeColor=none;" parent="WIyWlLk6GJQsqaUBKTNV-1" vertex="1">
          <mxGeometry x="110" y="360" width="106" height="60" as="geometry" />
        </mxCell>
        <mxCell id="9QVk3u8Kt-TEKJko5CJN-11" value="geoTouches" style="endArrow=open;html=1;entryX=1;entryY=0.5;entryDx=0;entryDy=0;rounded=0;startArrow=open;startFill=0;endFill=0;exitX=0;exitY=0.5;exitDx=0;exitDy=0;" parent="WIyWlLk6GJQsqaUBKTNV-1" source="9QVk3u8Kt-TEKJko5CJN-2" target="9QVk3u8Kt-TEKJko5CJN-8" edge="1">
          <mxGeometry width="50" height="50" relative="1" as="geometry">
            <mxPoint x="320" y="390" as="sourcePoint" />
            <mxPoint x="420" y="420" as="targetPoint" />
            <Array as="points" />
          </mxGeometry>
        </mxCell>
        <mxCell id="9QVk3u8Kt-TEKJko5CJN-14" value="name" style="rounded=1;whiteSpace=wrap;html=1;fontSize=12;glass=0;strokeWidth=1;shadow=0;fillColor=#0050ef;fontColor=#ffffff;strokeColor=none;" parent="WIyWlLk6GJQsqaUBKTNV-1" vertex="1">
          <mxGeometry x="520" y="210" width="120" height="20" as="geometry" />
        </mxCell>
        <mxCell id="9QVk3u8Kt-TEKJko5CJN-18" value="" style="endArrow=open;html=1;endFill=0;exitX=1;exitY=0.5;exitDx=0;exitDy=0;entryX=0;entryY=0.5;entryDx=0;entryDy=0;" parent="WIyWlLk6GJQsqaUBKTNV-1" source="WIyWlLk6GJQsqaUBKTNV-3" target="9QVk3u8Kt-TEKJko5CJN-14" edge="1">
          <mxGeometry width="50" height="50" relative="1" as="geometry">
            <mxPoint x="460" y="200" as="sourcePoint" />
            <mxPoint x="520" y="240" as="targetPoint" />
          </mxGeometry>
        </mxCell>
        <mxCell id="9QVk3u8Kt-TEKJko5CJN-61" value="has" style="edgeLabel;html=1;align=center;verticalAlign=middle;resizable=0;points=[];fontColor=#33001A;" parent="9QVk3u8Kt-TEKJko5CJN-18" vertex="1" connectable="0">
          <mxGeometry x="0.181" y="1" relative="1" as="geometry">
            <mxPoint as="offset" />
          </mxGeometry>
        </mxCell>
        <mxCell id="9QVk3u8Kt-TEKJko5CJN-25" value="neighbour" style="rhombus;whiteSpace=wrap;html=1;fillColor=#6d8764;fontColor=#ffffff;strokeColor=none;" parent="WIyWlLk6GJQsqaUBKTNV-1" vertex="1">
          <mxGeometry x="110" y="540" width="106" height="60" as="geometry" />
        </mxCell>
        <mxCell id="9QVk3u8Kt-TEKJko5CJN-26" value="" style="endArrow=open;html=1;entryX=1;entryY=0.5;entryDx=0;entryDy=0;rounded=0;startArrow=open;startFill=0;endFill=0;exitX=0;exitY=0.5;exitDx=0;exitDy=0;" parent="WIyWlLk6GJQsqaUBKTNV-1" source="9QVk3u8Kt-TEKJko5CJN-6" target="9QVk3u8Kt-TEKJko5CJN-25" edge="1">
          <mxGeometry width="50" height="50" relative="1" as="geometry">
            <mxPoint x="320" y="570" as="sourcePoint" />
            <mxPoint x="420" y="600" as="targetPoint" />
            <Array as="points" />
          </mxGeometry>
        </mxCell>
        <mxCell id="9QVk3u8Kt-TEKJko5CJN-27" value="geoTouches" style="edgeLabel;html=1;align=center;verticalAlign=middle;resizable=0;points=[];" parent="9QVk3u8Kt-TEKJko5CJN-26" vertex="1" connectable="0">
          <mxGeometry x="-0.2422" y="1" relative="1" as="geometry">
            <mxPoint x="-14.29" y="-1" as="offset" />
          </mxGeometry>
        </mxCell>
        <mxCell id="9QVk3u8Kt-TEKJko5CJN-28" value="name" style="rounded=1;whiteSpace=wrap;html=1;fontSize=12;glass=0;strokeWidth=1;shadow=0;fillColor=#0050ef;fontColor=#ffffff;strokeColor=none;" parent="WIyWlLk6GJQsqaUBKTNV-1" vertex="1">
          <mxGeometry x="520" y="350" width="120" height="20" as="geometry" />
        </mxCell>
        <mxCell id="9QVk3u8Kt-TEKJko5CJN-29" value="geo" style="rounded=1;whiteSpace=wrap;html=1;fontSize=12;glass=0;strokeWidth=1;shadow=0;fillColor=#0050ef;fontColor=#ffffff;strokeColor=none;" parent="WIyWlLk6GJQsqaUBKTNV-1" vertex="1">
          <mxGeometry x="520" y="380" width="120" height="20" as="geometry" />
        </mxCell>
        <mxCell id="9QVk3u8Kt-TEKJko5CJN-30" value="identifier" style="rounded=1;whiteSpace=wrap;html=1;fontSize=12;glass=0;strokeWidth=1;shadow=0;fillColor=#0050ef;fontColor=#ffffff;strokeColor=none;" parent="WIyWlLk6GJQsqaUBKTNV-1" vertex="1">
          <mxGeometry x="520" y="410" width="120" height="20" as="geometry" />
        </mxCell>
        <mxCell id="9QVk3u8Kt-TEKJko5CJN-31" value="" style="endArrow=open;html=1;exitX=1;exitY=0.5;exitDx=0;exitDy=0;endFill=0;" parent="WIyWlLk6GJQsqaUBKTNV-1" source="9QVk3u8Kt-TEKJko5CJN-2" edge="1">
          <mxGeometry width="50" height="50" relative="1" as="geometry">
            <mxPoint x="450" y="300" as="sourcePoint" />
            <mxPoint x="520" y="360" as="targetPoint" />
          </mxGeometry>
        </mxCell>
        <mxCell id="9QVk3u8Kt-TEKJko5CJN-32" value="has" style="edgeLabel;html=1;align=center;verticalAlign=middle;resizable=0;points=[];" parent="9QVk3u8Kt-TEKJko5CJN-31" vertex="1" connectable="0">
          <mxGeometry x="0.1129" relative="1" as="geometry">
            <mxPoint as="offset" />
          </mxGeometry>
        </mxCell>
        <mxCell id="9QVk3u8Kt-TEKJko5CJN-33" value="" style="endArrow=open;html=1;exitX=1;exitY=0.5;exitDx=0;exitDy=0;entryX=0;entryY=0.5;entryDx=0;entryDy=0;endFill=0;" parent="WIyWlLk6GJQsqaUBKTNV-1" source="9QVk3u8Kt-TEKJko5CJN-2" target="9QVk3u8Kt-TEKJko5CJN-29" edge="1">
          <mxGeometry width="50" height="50" relative="1" as="geometry">
            <mxPoint x="450" y="400" as="sourcePoint" />
            <mxPoint x="530" y="370" as="targetPoint" />
          </mxGeometry>
        </mxCell>
        <mxCell id="9QVk3u8Kt-TEKJko5CJN-34" value="has" style="edgeLabel;html=1;align=center;verticalAlign=middle;resizable=0;points=[];" parent="9QVk3u8Kt-TEKJko5CJN-33" vertex="1" connectable="0">
          <mxGeometry x="0.1129" relative="1" as="geometry">
            <mxPoint as="offset" />
          </mxGeometry>
        </mxCell>
        <mxCell id="9QVk3u8Kt-TEKJko5CJN-35" value="" style="endArrow=open;html=1;entryX=0;entryY=0.5;entryDx=0;entryDy=0;endFill=0;" parent="WIyWlLk6GJQsqaUBKTNV-1" target="9QVk3u8Kt-TEKJko5CJN-30" edge="1">
          <mxGeometry width="50" height="50" relative="1" as="geometry">
            <mxPoint x="440" y="390" as="sourcePoint" />
            <mxPoint x="530" y="400" as="targetPoint" />
          </mxGeometry>
        </mxCell>
        <mxCell id="9QVk3u8Kt-TEKJko5CJN-36" value="has" style="edgeLabel;html=1;align=center;verticalAlign=middle;resizable=0;points=[];" parent="9QVk3u8Kt-TEKJko5CJN-35" vertex="1" connectable="0">
          <mxGeometry x="0.1129" relative="1" as="geometry">
            <mxPoint as="offset" />
          </mxGeometry>
        </mxCell>
        <object label="&lt;a href=&quot;schema.org/Continent&quot;&gt;Continent&lt;/a&gt;" graknType="entity" id="9QVk3u8Kt-TEKJko5CJN-37">
          <mxCell style="rounded=1;whiteSpace=wrap;html=1;fontSize=12;glass=0;strokeWidth=1;shadow=0;fillColor=#76608a;fontColor=#ffffff;strokeColor=none;" parent="WIyWlLk6GJQsqaUBKTNV-1" vertex="1">
            <mxGeometry x="320" y="40" width="120" height="40" as="geometry" />
          </mxCell>
        </object>
        <object label="name" graknType="attribute" id="9QVk3u8Kt-TEKJko5CJN-38">
          <mxCell style="rounded=1;whiteSpace=wrap;html=1;fontSize=12;glass=0;strokeWidth=1;shadow=0;fillColor=#0050ef;fontColor=#ffffff;strokeColor=none;" parent="WIyWlLk6GJQsqaUBKTNV-1" vertex="1">
            <mxGeometry x="520" y="50" width="120" height="20" as="geometry" />
          </mxCell>
        </object>
        <object label="has" graknType="relation" id="9QVk3u8Kt-TEKJko5CJN-40">
          <mxCell style="endArrow=open;html=1;exitX=1;exitY=0.5;exitDx=0;exitDy=0;endFill=0;entryX=0;entryY=0.5;entryDx=0;entryDy=0;" parent="WIyWlLk6GJQsqaUBKTNV-1" source="9QVk3u8Kt-TEKJko5CJN-37" target="9QVk3u8Kt-TEKJko5CJN-38" edge="1">
            <mxGeometry width="50" height="50" relative="1" as="geometry">
              <mxPoint x="290" y="290" as="sourcePoint" />
              <mxPoint x="520" y="80" as="targetPoint" />
            </mxGeometry>
          </mxCell>
        </object>
        <object label="containsPlace" graknType="relation" id="9QVk3u8Kt-TEKJko5CJN-44">
          <mxCell style="endArrow=none;html=1;entryX=0.5;entryY=1;entryDx=0;entryDy=0;exitX=0.5;exitY=0;exitDx=0;exitDy=0;rounded=0;startArrow=open;startFill=0;" parent="WIyWlLk6GJQsqaUBKTNV-1" source="9QVk3u8Kt-TEKJko5CJN-54" target="9QVk3u8Kt-TEKJko5CJN-37" edge="1">
            <mxGeometry width="50" height="50" relative="1" as="geometry">
              <mxPoint x="390" y="325" as="sourcePoint" />
              <mxPoint x="390" y="265" as="targetPoint" />
            </mxGeometry>
          </mxCell>
        </object>
        <mxCell id="9QVk3u8Kt-TEKJko5CJN-45" value="name" style="rounded=1;whiteSpace=wrap;html=1;fontSize=12;glass=0;strokeWidth=1;shadow=0;fillColor=#0050ef;fontColor=#ffffff;strokeColor=none;" parent="WIyWlLk6GJQsqaUBKTNV-1" vertex="1">
          <mxGeometry x="520" y="530" width="120" height="20" as="geometry" />
        </mxCell>
        <mxCell id="9QVk3u8Kt-TEKJko5CJN-46" value="geo" style="rounded=1;whiteSpace=wrap;html=1;fontSize=12;glass=0;strokeWidth=1;shadow=0;fillColor=#0050ef;fontColor=#ffffff;strokeColor=none;" parent="WIyWlLk6GJQsqaUBKTNV-1" vertex="1">
          <mxGeometry x="520" y="560" width="120" height="20" as="geometry" />
        </mxCell>
        <mxCell id="9QVk3u8Kt-TEKJko5CJN-47" value="identifier" style="rounded=1;whiteSpace=wrap;html=1;fontSize=12;glass=0;strokeWidth=1;shadow=0;fillColor=#0050ef;fontColor=#ffffff;strokeColor=none;" parent="WIyWlLk6GJQsqaUBKTNV-1" vertex="1">
          <mxGeometry x="520" y="590" width="120" height="20" as="geometry" />
        </mxCell>
        <mxCell id="9QVk3u8Kt-TEKJko5CJN-48" value="" style="endArrow=open;html=1;exitX=1;exitY=0.5;exitDx=0;exitDy=0;entryX=0;entryY=0.5;entryDx=0;entryDy=0;endFill=0;" parent="WIyWlLk6GJQsqaUBKTNV-1" target="9QVk3u8Kt-TEKJko5CJN-45" edge="1">
          <mxGeometry width="50" height="50" relative="1" as="geometry">
            <mxPoint x="440" y="570" as="sourcePoint" />
            <mxPoint x="530" y="495" as="targetPoint" />
          </mxGeometry>
        </mxCell>
        <mxCell id="9QVk3u8Kt-TEKJko5CJN-49" value="has" style="edgeLabel;html=1;align=center;verticalAlign=middle;resizable=0;points=[];" parent="9QVk3u8Kt-TEKJko5CJN-48" vertex="1" connectable="0">
          <mxGeometry x="0.1129" relative="1" as="geometry">
            <mxPoint as="offset" />
          </mxGeometry>
        </mxCell>
        <mxCell id="9QVk3u8Kt-TEKJko5CJN-50" value="" style="endArrow=open;html=1;exitX=1;exitY=0.5;exitDx=0;exitDy=0;entryX=0;entryY=0.5;entryDx=0;entryDy=0;endFill=0;" parent="WIyWlLk6GJQsqaUBKTNV-1" target="9QVk3u8Kt-TEKJko5CJN-46" edge="1">
          <mxGeometry width="50" height="50" relative="1" as="geometry">
            <mxPoint x="440" y="570" as="sourcePoint" />
            <mxPoint x="530" y="550" as="targetPoint" />
          </mxGeometry>
        </mxCell>
        <mxCell id="9QVk3u8Kt-TEKJko5CJN-51" value="has" style="edgeLabel;html=1;align=center;verticalAlign=middle;resizable=0;points=[];" parent="9QVk3u8Kt-TEKJko5CJN-50" vertex="1" connectable="0">
          <mxGeometry x="0.1129" relative="1" as="geometry">
            <mxPoint as="offset" />
          </mxGeometry>
        </mxCell>
        <mxCell id="9QVk3u8Kt-TEKJko5CJN-52" value="" style="endArrow=open;html=1;entryX=0;entryY=0.5;entryDx=0;entryDy=0;endFill=0;" parent="WIyWlLk6GJQsqaUBKTNV-1" target="9QVk3u8Kt-TEKJko5CJN-47" edge="1">
          <mxGeometry width="50" height="50" relative="1" as="geometry">
            <mxPoint x="440" y="570" as="sourcePoint" />
            <mxPoint x="530" y="580" as="targetPoint" />
          </mxGeometry>
        </mxCell>
        <mxCell id="9QVk3u8Kt-TEKJko5CJN-53" value="has" style="edgeLabel;html=1;align=center;verticalAlign=middle;resizable=0;points=[];" parent="9QVk3u8Kt-TEKJko5CJN-52" vertex="1" connectable="0">
          <mxGeometry x="0.1129" relative="1" as="geometry">
            <mxPoint as="offset" />
          </mxGeometry>
        </mxCell>
        <object label="geoContains" graknType="relation" id="9QVk3u8Kt-TEKJko5CJN-54">
          <mxCell style="rhombus;whiteSpace=wrap;html=1;fillColor=#6d8764;fontColor=#ffffff;strokeColor=none;" parent="WIyWlLk6GJQsqaUBKTNV-1" vertex="1">
            <mxGeometry x="327" y="110" width="106" height="60" as="geometry" />
          </mxCell>
        </object>
        <mxCell id="9QVk3u8Kt-TEKJko5CJN-55" value="containedinPlace" style="endArrow=open;html=1;entryX=0.5;entryY=1;entryDx=0;entryDy=0;rounded=0;startArrow=none;startFill=0;exitX=0.5;exitY=0;exitDx=0;exitDy=0;endFill=0;" parent="WIyWlLk6GJQsqaUBKTNV-1" source="WIyWlLk6GJQsqaUBKTNV-3" target="9QVk3u8Kt-TEKJko5CJN-54" edge="1">
          <mxGeometry width="50" height="50" relative="1" as="geometry">
            <mxPoint x="380" y="200" as="sourcePoint" />
            <mxPoint x="380" y="80" as="targetPoint" />
          </mxGeometry>
        </mxCell>
        <mxCell id="9QVk3u8Kt-TEKJko5CJN-56" value="geoContains" style="rhombus;whiteSpace=wrap;html=1;fillColor=#6d8764;fontColor=#ffffff;strokeColor=none;" parent="WIyWlLk6GJQsqaUBKTNV-1" vertex="1">
          <mxGeometry x="327" y="275" width="106" height="60" as="geometry" />
        </mxCell>
        <mxCell id="9QVk3u8Kt-TEKJko5CJN-57" value="containsPlace" style="endArrow=none;html=1;rounded=0;startArrow=open;startFill=0;exitX=0.5;exitY=0;exitDx=0;exitDy=0;entryX=0.5;entryY=1;entryDx=0;entryDy=0;" parent="WIyWlLk6GJQsqaUBKTNV-1" source="9QVk3u8Kt-TEKJko5CJN-2" target="9QVk3u8Kt-TEKJko5CJN-56" edge="1">
          <mxGeometry width="50" height="50" relative="1" as="geometry">
            <mxPoint x="390" y="285" as="sourcePoint" />
            <mxPoint x="390" y="250" as="targetPoint" />
          </mxGeometry>
        </mxCell>
        <mxCell id="9QVk3u8Kt-TEKJko5CJN-58" value="geoContains" style="rhombus;whiteSpace=wrap;html=1;fillColor=#6d8764;fontColor=#ffffff;strokeColor=none;" parent="WIyWlLk6GJQsqaUBKTNV-1" vertex="1">
          <mxGeometry x="327" y="450" width="106" height="60" as="geometry" />
        </mxCell>
        <mxCell id="9QVk3u8Kt-TEKJko5CJN-59" value="containsPlace" style="edgeStyle=orthogonalEdgeStyle;rounded=0;orthogonalLoop=1;jettySize=auto;html=1;startArrow=none;startFill=0;endArrow=open;endFill=0;entryX=0.5;entryY=0;entryDx=0;entryDy=0;exitX=0.5;exitY=1;exitDx=0;exitDy=0;" parent="WIyWlLk6GJQsqaUBKTNV-1" source="9QVk3u8Kt-TEKJko5CJN-58" target="9QVk3u8Kt-TEKJko5CJN-6" edge="1">
          <mxGeometry relative="1" as="geometry">
            <mxPoint x="390" y="420" as="sourcePoint" />
            <mxPoint x="390" y="460" as="targetPoint" />
          </mxGeometry>
        </mxCell>
      </root>
    </mxGraphModel>
  </diagram>
</mxfile>
